<?xml version="1.0" encoding="UTF-8"?>
<svg id="Layer_1" xmlns="http://www.w3.org/2000/svg" version="1.1" viewBox="0 0 817.53 402.75">

  <defs>
    <style>
      .st0 {
        fill: #2b3493;
      }

      .st1 {
        fill: #fff;
      }
    </style>
  </defs>
  <rect class="st0" width="402.75" height="402.75" rx="53" ry="53"/>
  <g>
    <path class="st1" d="M202.02,193.7c-2.58-1.43-5.12-2.94-7.93-4.55.9-1.87,1.44-3.09,2.06-4.26,6.64-12.49,6.94-25.77,3.63-39-6-23.92-28.39-39.3-50.64-39.36-26.1-.08-52.21-.11-78.31-.1-1.6,0-3.2.59-5.52,1.05-.1,62.77-.05,125.09,0,187.78,3.11.44,5.08.96,7.05.96,34.35.04,68.7.21,103.05-.09,12.64-.11,24.63-4.06,34.36-12.07,29.92-24.62,26.1-71.64-7.73-90.36h-.02ZM94.24,133.99c2.53-.22,4.81-.57,7.09-.58,15.08-.05,30.16-.1,45.24,0,19.38.13,31.94,15.97,27.47,34.51-2.13,8.85-13.51,18.75-23.36,18.98-18.46.44-36.93.13-56.43.13v-53.04h-.01ZM201.03,244.91c-.72,10.85-10.86,22.34-21.73,22.53-28.06.51-56.14.17-85.11.17v-52.21c2.32-.3,4.58-.85,6.85-.85,22.99-.07,45.98-.12,68.97,0,4.42.02,8.98.34,13.24,1.43,11.76,3,18.73,14.66,17.78,28.93h0Z"/>
    <path class="st1" d="M337.39,160.36c1.66-28.73-24.05-53.92-52.97-53.92-27.18,0-54.36,21.76-54.23,54.16.13,34.18,29.01,53.63,53.47,53.98,27.83.4,55.8-24.35,53.74-54.23h-.01ZM258.45,160.2c-1.11-16.36,14.65-26.96,25.88-26.29,14.74.88,25.9,11.91,25.99,26.83.08,14-12.86,26.53-26.5,26.29-14.24-.25-25.4-12.05-25.37-26.83h0Z"/>
    <polygon class="st1" points="254.16 242.53 249.83 234.2 246.77 234.2 246.77 248.85 249.62 248.85 249.62 239.15 253.4 246.37 254.95 246.37 258.72 239.15 258.72 248.85 261.57 248.85 261.57 234.2 258.53 234.2 254.16 242.53"/>
    <polygon class="st1" points="270.56 242.53 276.73 242.53 276.73 240.22 270.56 240.22 270.56 236.69 277.7 236.69 277.7 234.2 267.72 234.2 267.72 248.85 277.89 248.85 277.89 246.35 270.56 246.35 270.56 242.53"/>
    <path class="st1" d="M293.94,236.34c-.61-.66-1.36-1.18-2.26-1.57-.9-.38-1.95-.58-3.15-.58h-5.32v14.65h5.32c1.1,0,2.09-.18,2.98-.53s1.65-.85,2.28-1.49,1.12-1.41,1.45-2.31c.34-.9.5-1.91.5-3.02,0-1-.15-1.95-.45-2.84-.3-.89-.76-1.66-1.36-2.32h0ZM292.6,243.42c-.19.59-.47,1.1-.84,1.54-.36.43-.82.77-1.36,1.02-.54.25-1.17.37-1.87.37h-2.48v-9.66h2.48c.69,0,1.3.12,1.85.35.54.23,1,.56,1.37.99.37.43.65.94.85,1.53s.29,1.24.29,1.94-.1,1.33-.29,1.92h0Z"/>
    <rect class="st1" x="301.08" y="234.2" width="2.85" height="14.65"/>
    <path class="st1" d="M314.24,234.2l-5.59,14.65h2.93l1.34-3.65h5.12l1.36,3.65h2.93l-5.57-14.65h-2.52,0ZM313.39,243.19l2.1-5.76,2.02,5.76h-4.13.01Z"/>
  </g>
  <g>
    <path class="st0" d="M496.68,131.14c0,2.33-.47,4.47-1.41,6.4s-2.22,3.59-3.84,4.96c-1.62,1.37-3.5,2.42-5.64,3.16-2.13.74-4.42,1.11-6.88,1.11h-28.79v-60.65h30.15c2.11,0,4.01.46,5.72,1.37s3.16,2.09,4.36,3.54c1.2,1.46,2.12,3.1,2.78,4.96.66,1.86.98,3.71.98,5.59,0,3.02-.76,5.81-2.27,8.37-1.51,2.57-3.66,4.47-6.45,5.72,3.48,1.02,6.22,2.92,8.25,5.68,2.02,2.77,3.03,6.02,3.03,9.78h.01ZM457.8,92.79v20.25h19.31c1.37,0,2.62-.27,3.76-.81s2.12-1.27,2.95-2.18c.82-.91,1.48-1.98,1.97-3.2.49-1.22.72-2.52.72-3.89s-.22-2.77-.69-4.01-1.07-2.33-1.83-3.25c-.77-.91-1.71-1.62-2.82-2.13s-2.29-.77-3.54-.77h-19.85ZM488.9,129.78c0-1.37-.25-2.69-.72-3.97-.49-1.28-1.15-2.4-1.97-3.38-.82-.97-1.81-1.73-2.95-2.3-1.15-.57-2.39-.86-3.76-.86h-21.7v20.84h21.11c1.42,0,2.73-.29,3.92-.86s2.26-1.32,3.16-2.27c.91-.93,1.62-2.03,2.13-3.29.51-1.25.77-2.57.77-3.92h.01Z"/>
    <path class="st0" d="M507.44,146.77v-60.65h25.97c2.68,0,5.13.56,7.39,1.67,2.24,1.11,4.19,2.59,5.81,4.45,1.62,1.86,2.89,3.92,3.8,6.23s1.37,4.66,1.37,7.05c0,2.11-.3,4.15-.9,6.11-.6,1.97-1.46,3.75-2.57,5.35s-2.45,2.97-4.01,4.1c-1.57,1.15-3.31,1.97-5.26,2.48l14.69,23.24h-8.71l-13.84-21.78h-16.06v21.78h-7.69.01ZM515.13,118.16h18.37c1.59,0,3.03-.34,4.31-1.02s2.38-1.61,3.29-2.78c.91-1.17,1.62-2.52,2.13-4.06.51-1.53.77-3.13.77-4.78s-.3-3.31-.9-4.82c-.6-1.51-1.4-2.85-2.39-4.01-1-1.17-2.17-2.08-3.5-2.73s-2.75-.98-4.22-.98h-17.85v25.21h0Z"/>
    <path class="st0" d="M588.17,147.2c-4.27,0-8.16-.87-11.66-2.6s-6.5-4.04-9.01-6.91-4.45-6.17-5.81-9.87c-1.37-3.7-2.06-7.49-2.06-11.36s.72-7.91,2.18-11.61,3.46-6.98,6.02-9.82c2.57-2.85,5.59-5.11,9.1-6.79s7.3-2.52,11.4-2.52,8.15.9,11.61,2.69c3.48,1.79,6.47,4.15,8.97,7.05,2.5,2.9,4.45,6.19,5.81,9.87s2.06,7.41,2.06,11.24c0,4.05-.72,7.91-2.18,11.61s-3.45,6.96-5.98,9.78c-2.53,2.82-5.56,5.07-9.06,6.75-3.5,1.68-7.3,2.52-11.4,2.52v-.02ZM567.41,116.45c0,3.08.5,6.06,1.5,8.93s2.4,5.42,4.22,7.65c1.82,2.22,4.01,3.99,6.58,5.3,2.57,1.31,5.41,1.97,8.55,1.97s6.15-.7,8.71-2.09c2.57-1.4,4.73-3.21,6.54-5.47,1.79-2.26,3.16-4.8,4.1-7.65s1.41-5.72,1.41-8.62c0-3.08-.5-6.06-1.5-8.93s-2.42-5.41-4.27-7.6-4.05-3.95-6.58-5.26-5.35-1.97-8.41-1.97c-3.25,0-6.15.69-8.71,2.06-2.57,1.37-4.75,3.16-6.54,5.38-1.79,2.22-3.18,4.76-4.15,7.6-.97,2.85-1.46,5.76-1.46,8.71h.01Z"/>
    <path class="st0" d="M627.46,146.77v-60.65h21.02c4.83,0,9.1.8,12.77,2.39s6.73,3.76,9.18,6.49c2.44,2.73,4.29,5.93,5.51,9.61,1.22,3.68,1.83,7.59,1.83,11.75,0,4.61-.69,8.78-2.06,12.51-1.37,3.73-3.33,6.91-5.89,9.57-2.57,2.65-5.66,4.7-9.27,6.15s-7.65,2.18-12.09,2.18h-21.02.01ZM670,116.36c0-3.41-.47-6.57-1.41-9.44s-2.34-5.35-4.19-7.39c-1.86-2.06-4.11-3.66-6.79-4.82-2.68-1.17-5.72-1.76-9.15-1.76h-13.33v46.98h13.33c3.48,0,6.57-.6,9.27-1.79s4.96-2.85,6.75-4.96,3.16-4.6,4.1-7.48,1.41-5.99,1.41-9.36h0Z"/>
    <path class="st0" d="M475.06,232.62c-4.44,0-8.47-.87-12.09-2.6-3.61-1.73-6.72-4.05-9.31-6.91-2.59-2.88-4.6-6.17-6.02-9.87-1.42-3.7-2.13-7.49-2.13-11.36s.76-7.91,2.27-11.61c1.51-3.7,3.59-6.98,6.23-9.82,2.65-2.85,5.79-5.11,9.44-6.79,3.64-1.68,7.6-2.52,11.87-2.52s8.39.9,12,2.69,6.7,4.15,9.27,7.05,4.56,6.2,5.98,9.91,2.13,7.46,2.13,11.28c0,4.05-.74,7.9-2.22,11.57s-3.53,6.91-6.15,9.74c-2.62,2.82-5.76,5.07-9.39,6.75-3.65,1.68-7.6,2.52-11.87,2.52v-.02ZM457.47,201.87c0,2.62.4,5.16,1.2,7.6.8,2.45,1.96,4.61,3.46,6.49,1.51,1.88,3.36,3.39,5.56,4.52s4.68,1.71,7.48,1.71,5.37-.59,7.56-1.76,4.05-2.72,5.56-4.66c1.51-1.93,2.65-4.11,3.41-6.54.77-2.42,1.16-4.88,1.16-7.39s-.41-5.16-1.23-7.6-1.99-4.61-3.5-6.49c-1.51-1.88-3.36-3.38-5.56-4.49-2.19-1.11-4.66-1.67-7.39-1.67s-5.38.59-7.6,1.76-4.07,2.7-5.56,4.61-2.6,4.07-3.38,6.49-1.15,4.88-1.15,7.39l-.02.02Z"/>
    <path class="st0" d="M513.76,232.2v-60.65h25.72c2.79,0,5.37.59,7.74,1.76s4.4,2.7,6.11,4.61,3.04,4.07,4.01,6.49c.97,2.42,1.46,4.86,1.46,7.3s-.46,5.06-1.37,7.48-2.19,4.57-3.85,6.45-3.65,3.39-5.98,4.52c-2.34,1.15-4.9,1.71-7.69,1.71h-14.35v20.33h-11.79ZM525.55,201.53h13.67c2.17,0,3.97-.88,5.42-2.64,1.46-1.77,2.18-4.16,2.18-7.18,0-1.53-.22-2.92-.69-4.15-.46-1.22-1.06-2.27-1.79-3.11-.74-.86-1.61-1.5-2.6-1.92s-2.01-.64-3.03-.64h-13.16v19.65h0Z"/>
    <path class="st0" d="M612.34,181.88h-19.39v50.31h-11.7v-50.31h-19.39v-10.34h50.49v10.34h-.01Z"/>
    <path class="st0" d="M619.85,232.2v-60.65h11.79v60.65h-11.79Z"/>
    <path class="st0" d="M670.17,232.62c-4.44,0-8.47-.87-12.09-2.6s-6.72-4.05-9.31-6.91c-2.59-2.88-4.6-6.17-6.02-9.87s-2.13-7.49-2.13-11.36.76-7.91,2.27-11.61,3.59-6.98,6.23-9.82c2.65-2.85,5.79-5.11,9.44-6.79,3.64-1.68,7.6-2.52,11.87-2.52s8.39.9,12,2.69,6.7,4.15,9.27,7.05,4.56,6.2,5.98,9.91,2.13,7.46,2.13,11.28c0,4.05-.74,7.9-2.22,11.57s-3.53,6.91-6.15,9.74c-2.62,2.82-5.76,5.07-9.39,6.75-3.65,1.68-7.6,2.52-11.87,2.52v-.02ZM652.57,201.87c0,2.62.4,5.16,1.2,7.6.8,2.45,1.96,4.61,3.46,6.49,1.51,1.88,3.36,3.39,5.56,4.52s4.68,1.71,7.48,1.71,5.37-.59,7.56-1.76,4.05-2.72,5.56-4.66c1.51-1.93,2.65-4.11,3.41-6.54.77-2.42,1.16-4.88,1.16-7.39s-.41-5.16-1.23-7.6-1.99-4.61-3.5-6.49c-1.51-1.88-3.36-3.38-5.56-4.49s-4.66-1.67-7.39-1.67-5.38.59-7.6,1.76c-2.22,1.17-4.07,2.7-5.56,4.61s-2.6,4.07-3.38,6.49-1.15,4.88-1.15,7.39l-.03.02Z"/>
    <path class="st0" d="M720.66,193.33v38.87h-11.79v-60.65h9.15l31.61,39.81v-39.72h11.79v60.56h-9.57l-31.19-38.87h0Z"/>
    <path class="st0" d="M810.18,187.44c-.4-.4-1.12-.93-2.18-1.62s-2.34-1.35-3.84-2.01c-1.51-.65-3.15-1.21-4.91-1.67-1.77-.46-3.56-.69-5.38-.69-3.25,0-5.67.6-7.26,1.79s-2.39,2.88-2.39,5.03c0,1.26.3,2.29.9,3.11s1.47,1.56,2.6,2.18c1.13.62,2.58,1.2,4.31,1.71,1.73.51,3.74,1.06,6.02,1.62,2.97.8,5.66,1.66,8.07,2.57s4.47,2.06,6.15,3.41c1.68,1.37,2.98,3,3.89,4.91s1.37,4.26,1.37,7.05c0,3.25-.61,6.02-1.83,8.32-1.22,2.3-2.88,4.17-4.96,5.59s-4.47,2.47-7.18,3.11c-2.7.66-5.54.98-8.5.98-4.56,0-9.06-.69-13.49-2.06-4.45-1.37-8.43-3.3-11.96-5.81l5.21-10.17c.51.51,1.43,1.18,2.78,2.01,1.33.82,2.92,1.66,4.75,2.48,1.82.82,3.84,1.52,6.07,2.09,2.22.57,4.5.86,6.84.86,6.49,0,9.74-2.08,9.74-6.23,0-1.31-.37-2.42-1.11-3.33s-1.79-1.71-3.16-2.39-3.02-1.31-4.96-1.88c-1.93-.57-4.1-1.2-6.49-1.88-2.9-.8-5.42-1.67-7.56-2.6-2.13-.93-3.91-2.06-5.35-3.33-1.42-1.28-2.49-2.77-3.2-4.45s-1.07-3.69-1.07-6.02c0-3.08.57-5.81,1.71-8.2s2.72-4.39,4.73-5.98,4.37-2.8,7.05-3.63c2.68-.82,5.56-1.23,8.62-1.23,4.27,0,8.2.67,11.79,2.01,3.59,1.35,6.72,2.92,9.39,4.75l-5.21,9.57h0Z"/>
    <path class="st0" d="M505.74,317.62v-52.45l-23.92,40.92h-2.73l-23.92-40.92v52.45h-4.36v-60.65h4.36l25.28,43.4,25.28-43.4h4.36v60.65h-4.36.01Z"/>
    <path class="st0" d="M566.38,313.69v3.92h-40.41v-60.65h39.63v3.92h-35.28v23.83h30.84v3.76h-30.84v25.21h36.06Z"/>
    <path class="st0" d="M578.25,317.62v-60.65h20.16c4.78,0,8.98.8,12.6,2.39,3.61,1.59,6.62,3.76,9.01,6.49s4.19,5.94,5.38,9.61c1.2,3.68,1.79,7.59,1.79,11.75,0,4.61-.67,8.78-2.01,12.51-1.35,3.74-3.26,6.91-5.77,9.57-2.5,2.64-5.54,4.7-9.1,6.15-3.56,1.46-7.53,2.18-11.91,2.18h-20.16ZM622.84,287.22c0-3.81-.55-7.33-1.62-10.55-1.08-3.21-2.67-5.99-4.75-8.32s-4.62-4.16-7.65-5.47c-3.02-1.31-6.49-1.97-10.43-1.97h-15.8v52.79h15.8c3.99,0,7.5-.67,10.55-2.01,3.04-1.33,5.59-3.2,7.65-5.59s3.6-5.2,4.66-8.41c1.05-3.21,1.58-6.7,1.58-10.47h0Z"/>
    <path class="st0" d="M639.16,317.62v-60.65h4.36v60.65h-4.36Z"/>
    <path class="st0" d="M678.46,256.98h3.76l25.63,60.65h-4.61l-8.46-19.98h-28.96l-8.46,19.98h-4.7l25.8-60.65h-.01ZM693.57,294.04l-13.24-31.78-13.49,31.78h26.74Z"/>
  </g>
</svg>